<svg width="40" height="40" viewBox="0 0 40 40" fill="none" xmlns="http://www.w3.org/2000/svg">
<path d="M38.6027 31.7767C38.6027 32.4465 38.4537 33.1349 38.1369 33.8046C37.9615 34.1758 37.7574 34.5354 37.5183 34.8837C37.4352 35.0048 37.3478 35.1246 37.256 35.243C37.1353 35.3985 37.0069 35.5516 36.8701 35.7023C36.5169 36.091 36.1497 36.4379 35.7665 36.7442C35.1591 37.2294 34.5114 37.6125 33.8146 37.8977C32.6968 38.3628 31.4858 38.6046 30.1817 38.6046C28.2813 38.6046 26.2506 38.1581 24.1081 37.2465C21.9655 36.3349 19.823 35.107 17.6991 33.5628C15.5566 32 13.5259 30.2698 11.5883 28.3535C9.66932 26.4186 7.93667 24.3907 6.39032 22.2698C4.86261 20.1488 3.63299 18.0279 2.73872 15.9256C1.84444 13.8046 1.39731 11.7767 1.39731 9.84185C1.39731 8.57673 1.62088 7.36743 2.06801 6.25115C2.51515 5.11627 3.22311 4.07441 4.21054 3.14418C5.4029 1.97208 6.70704 1.39534 8.08571 1.39534C8.60737 1.39534 9.12903 1.50697 9.59479 1.73022C10.0792 1.95348 10.5077 2.28836 10.843 2.77208L15.1654 8.85581C15.5007 9.32092 15.7429 9.74883 15.9106 10.1581C16.0783 10.5488 16.1714 10.9395 16.1714 11.293C16.1714 11.7395 16.041 12.186 15.7802 12.6139C15.538 13.0419 15.184 13.4884 14.7369 13.9349L13.3209 15.4046C13.116 15.6093 13.0228 15.8512 13.0228 16.1488C13.0228 16.2977 13.0415 16.4279 13.0787 16.5767C13.1346 16.7256 13.1905 16.8372 13.2278 16.9488C13.5631 17.5628 14.1407 18.3628 14.9604 19.3302C15.7988 20.2977 16.6931 21.2837 17.6619 22.2698C18.6679 23.2558 19.6367 24.1674 20.6241 25.0046C21.5929 25.8232 22.394 26.3814 23.0275 26.7163C23.1206 26.7535 23.2324 26.8093 23.3628 26.8651C23.5119 26.9209 23.6609 26.9395 23.8286 26.9395C24.1453 26.9395 24.3875 26.8279 24.5925 26.6232L26.0084 25.2279C26.4742 24.7628 26.9213 24.4093 27.3498 24.186C27.7783 23.9256 28.2068 23.7953 28.6726 23.7953C29.0266 23.7953 29.3992 23.8698 29.809 24.0372C30.2189 24.2046 30.6474 24.4465 31.1132 24.7628L37.2799 29.1349C37.7643 29.4698 38.0997 29.8605 38.3046 30.3256C38.4909 30.7907 38.6027 31.2558 38.6027 31.7767Z" fill="#0C6AA5"/>
<path fill-rule="evenodd" clip-rule="evenodd" d="M3.24095 2.13933C4.64187 0.766478 6.27962 0 8.0857 0C8.79959 0 9.52605 0.151408 10.1899 0.467715C10.8757 0.785653 11.5009 1.27243 11.9869 1.97064L16.3023 8.04466C16.6843 8.57499 16.9831 9.09389 17.1995 9.61926C17.4191 10.1341 17.5687 10.7097 17.5687 11.293C17.5687 12.0128 17.3587 12.7007 16.9856 13.3198C16.6684 13.875 16.2352 14.4106 15.7348 14.9117L14.4516 16.2436C14.4646 16.2743 14.482 16.3157 14.5009 16.3637C14.7797 16.8519 15.2734 17.539 16.0222 18.4231C16.8421 19.3691 17.7117 20.3277 18.65 21.2832C19.641 22.2542 20.5797 23.1364 21.5274 23.94C22.4235 24.6972 23.1218 25.1797 23.6292 25.4552C23.6702 25.4729 23.708 25.49 23.7389 25.5041L25.0238 24.2378C25.5332 23.7295 26.0795 23.2816 26.6627 22.9704C27.272 22.6082 27.9362 22.4 28.6726 22.4C29.2313 22.4 29.7834 22.5191 30.3381 22.7457C30.8653 22.9611 31.3812 23.2574 31.8989 23.6089L31.9106 23.6169L38.0827 27.9928C38.7433 28.4511 39.261 29.0316 39.5836 29.7636L39.5931 29.7853L39.602 29.8074C39.8393 30.3999 40 31.0421 40 31.7767C40 32.6558 39.8039 33.5473 39.4004 34.4005C39.1949 34.8351 38.9542 35.2597 38.6709 35.6726C38.5724 35.816 38.469 35.9577 38.3604 36.0977C38.2177 36.2816 38.0662 36.4622 37.9054 36.6393C37.5063 37.0785 37.085 37.4777 36.6394 37.8337C35.9329 38.3983 35.1715 38.8499 34.3484 39.1872C33.0548 39.7249 31.6618 40 30.1817 40C28.0604 40 25.8432 39.5015 23.5603 38.5302C21.3107 37.573 19.0768 36.2904 16.8767 34.6908L16.8749 34.6896C14.6748 33.0848 12.591 31.3091 10.605 29.3449L10.5954 29.3354C8.62874 27.3524 6.85006 25.271 5.26069 23.0911L5.25596 23.0846C3.67908 20.8954 2.39423 18.6847 1.45263 16.4711L1.4509 16.4671C0.497795 14.2066 0 11.9944 0 9.84186C0 8.41272 0.252638 7.02757 0.769184 5.73659C1.29458 4.40471 2.11985 3.19821 3.24095 2.13933Z" fill="#0C6AA5"/>
</svg>
