<svg width="54" height="54" viewBox="0 0 54 54" fill="none" xmlns="http://www.w3.org/2000/svg">
<path d="M0.125 15.125C0.125 6.84073 6.84073 0.125 15.125 0.125H38.875C47.1593 0.125 53.875 6.84073 53.875 15.125V38.875C53.875 47.1593 47.1593 53.875 38.875 53.875H15.125C6.84073 53.875 0.125 47.1593 0.125 38.875V15.125Z" fill="#227E02"/>
<path fill-rule="evenodd" clip-rule="evenodd" d="M42.0457 17.4391C42.6312 18.0246 42.6312 18.9739 42.0457 19.5594L26.2152 35.3899C24.0684 37.5367 20.5877 37.5367 18.4408 35.3899L11.9391 28.8882C11.3536 28.3027 11.3536 27.3534 11.9391 26.7679C12.5246 26.1824 13.4739 26.1824 14.0594 26.7679L20.5611 33.2696C21.537 34.2454 23.1191 34.2454 24.0949 33.2696L39.9254 17.4391C40.5109 16.8536 41.4602 16.8536 42.0457 17.4391Z" fill="white"/>
</svg>
