<svg width="54" height="54" viewBox="0 0 54 54" fill="none" xmlns="http://www.w3.org/2000/svg">
<path d="M0.125122 15.125C0.125122 6.84073 6.84085 0.125 15.1251 0.125H38.8751C47.1594 0.125 53.8751 6.84073 53.8751 15.125V38.875C53.8751 47.1593 47.1594 53.875 38.8751 53.875H15.1251C6.84085 53.875 0.125122 47.1593 0.125122 38.875V15.125Z" fill="#0C6AA5"/>
<path fill-rule="evenodd" clip-rule="evenodd" d="M42.0459 17.4391C42.6314 18.0246 42.6314 18.9739 42.0459 19.5594L26.2154 35.3899C24.0686 37.5367 20.5879 37.5367 18.4411 35.3899L11.9394 28.8882C11.3539 28.3027 11.3539 27.3534 11.9394 26.7679C12.5249 26.1824 13.4741 26.1824 14.0596 26.7679L20.5614 33.2696C21.5372 34.2454 23.1193 34.2454 24.0952 33.2696L39.9256 17.4391C40.5111 16.8536 41.4604 16.8536 42.0459 17.4391Z" fill="white"/>
</svg>
