<svg width="20" height="20" viewBox="0 0 20 20" fill="none" xmlns="http://www.w3.org/2000/svg">
<path fill-rule="evenodd" clip-rule="evenodd" d="M0.25 10C0.25 4.61779 4.61779 0.25 10 0.25C15.3822 0.25 19.75 4.61779 19.75 10C19.75 15.3822 15.3822 19.75 10 19.75C4.61779 19.75 0.25 15.3822 0.25 10Z" fill="#0C6AA5"/>
<path fill-rule="evenodd" clip-rule="evenodd" d="M9.66699 5.20911C10.0812 5.20911 10.417 5.54489 10.417 5.95911V9.64911C10.417 9.77115 10.4646 9.95871 10.5772 10.1562C10.6899 10.3537 10.827 10.4901 10.9313 10.5519L10.9333 10.5531L13.7233 12.2181C14.079 12.4303 14.1953 12.8908 13.983 13.2464C13.7708 13.6021 13.3103 13.7184 12.9546 13.5061L10.1666 11.8423C10.1663 11.8421 10.1659 11.8419 10.1656 11.8417C9.78443 11.6155 9.4809 11.2617 9.27424 10.8993C9.06736 10.5365 8.91699 10.0941 8.91699 9.64911V5.95911C8.91699 5.54489 9.25278 5.20911 9.66699 5.20911Z" fill="white"/>
</svg>
