<svg width="40" height="35" viewBox="0 0 40 35" fill="none" xmlns="http://www.w3.org/2000/svg">
<path fill-rule="evenodd" clip-rule="evenodd" d="M10.6977 0C7.69308 0 4.97609 0.750947 3.00402 2.58215C1.01324 4.43073 0 7.17591 0 10.6977V23.7209C0 27.2427 1.01324 29.9879 3.00402 31.8365C4.97609 33.6677 7.69308 34.4186 10.6977 34.4186H29.3023C32.3069 34.4186 35.0239 33.6677 36.996 31.8365C38.9868 29.9879 40 27.2427 40 23.7209V10.6977C40 7.17591 38.9868 4.43073 36.996 2.58215C35.0239 0.750947 32.3069 0 29.3023 0H10.6977ZM33.4483 10.4415C34.0581 9.9703 34.1704 9.09399 33.6992 8.4842C33.2281 7.8744 32.3517 7.76205 31.742 8.23324L21.4219 16.2077C20.5843 16.8549 19.4155 16.8549 18.5779 16.2077L8.25785 8.23324C7.64806 7.76205 6.77175 7.8744 6.30056 8.4842C5.82936 9.09399 5.94172 9.9703 6.55151 10.4415L16.8716 18.416C18.7141 19.8397 21.2857 19.8397 23.1282 18.416L33.4483 10.4415Z" fill="#0C6AA5"/>
</svg>
