<svg width="26" height="28" viewBox="0 0 26 28" fill="none" xmlns="http://www.w3.org/2000/svg">
<path fill-rule="evenodd" clip-rule="evenodd" d="M8 0.5625C4.03045 0.5625 0.8125 3.78045 0.8125 7.75V20.25C0.8125 24.2195 4.03045 27.4375 8 27.4375H18C21.9695 27.4375 25.1875 24.2195 25.1875 20.25V7.75C25.1875 3.78045 21.9695 0.5625 18 0.5625H8ZM8 8.31244C7.48223 8.31244 7.0625 8.73217 7.0625 9.24994C7.0625 9.76771 7.48223 10.1874 8 10.1874H18C18.5178 10.1874 18.9375 9.76771 18.9375 9.24994C18.9375 8.73217 18.5178 8.31244 18 8.31244H8ZM7.0625 14.2499C7.0625 13.7322 7.48223 13.3124 8 13.3124H18C18.5178 13.3124 18.9375 13.7322 18.9375 14.2499C18.9375 14.7677 18.5178 15.1874 18 15.1874H8C7.48223 15.1874 7.0625 14.7677 7.0625 14.2499ZM9.25 18.3124C8.73223 18.3124 8.3125 18.7322 8.3125 19.2499C8.3125 19.7677 8.73223 20.1874 9.25 20.1874H16.75C17.2678 20.1874 17.6875 19.7677 17.6875 19.2499C17.6875 18.7322 17.2678 18.3124 16.75 18.3124H9.25Z" fill="#0C6AA5"/>
</svg>
