<svg width="54" height="50" viewBox="0 0 54 50" fill="none" xmlns="http://www.w3.org/2000/svg">
<path fill-rule="evenodd" clip-rule="evenodd" d="M15.9 0.875061C7.18071 0.875061 0.125 7.9733 0.125 16.7251C0.125 26.0988 4.4733 33.5003 9.66442 38.8191C14.8292 44.1109 20.9414 47.4653 24.8359 48.7966C25.5216 49.0369 26.3068 49.1251 27 49.1251C27.6932 49.1251 28.4784 49.0369 29.1641 48.7966C33.0586 47.4653 39.1708 44.1109 44.3356 38.8191C49.5267 33.5003 53.875 26.0988 53.875 16.7251C53.875 7.9733 46.8193 0.875061 38.1 0.875061C33.7804 0.875061 29.8461 2.63916 27.0008 5.48685C24.1614 2.64003 20.2418 0.875061 15.9 0.875061ZM47.5389 22.9878C47.8489 21.9997 47.2993 20.9475 46.3113 20.6375C45.3232 20.3274 44.2709 20.8771 43.9609 21.8651C42.1117 27.7587 38.2738 32.5205 34.1107 36.0739C33.3231 36.7462 33.2296 37.9297 33.9018 38.7173C34.5741 39.5049 35.7576 39.5984 36.5453 38.9261C41.0709 35.0632 45.4195 29.7427 47.5389 22.9878Z" fill="#0C6AA5"/>
</svg>
