<svg width="54" height="50" viewBox="0 0 54 50" fill="none" xmlns="http://www.w3.org/2000/svg">
<path fill-rule="evenodd" clip-rule="evenodd" d="M15.9 0.875C7.18071 0.875 0.125 7.97324 0.125 16.725C0.125 26.0987 4.4733 33.5002 9.66442 38.819C14.8292 44.1108 20.9414 47.4653 24.8359 48.7966C25.5216 49.0368 26.3068 49.125 27 49.125C27.6932 49.125 28.4784 49.0368 29.1641 48.7966C33.0586 47.4653 39.1708 44.1108 44.3356 38.819C49.5267 33.5002 53.875 26.0987 53.875 16.725C53.875 7.97324 46.8193 0.875 38.1 0.875C33.7804 0.875 29.8461 2.6391 27.0008 5.48679C24.1614 2.63997 20.2418 0.875 15.9 0.875ZM47.5389 22.9877C47.8489 21.9997 47.2993 20.9474 46.3113 20.6374C45.3232 20.3274 44.2709 20.877 43.9609 21.8651C42.1117 27.7587 38.2738 32.5204 34.1107 36.0738C33.3231 36.7461 33.2296 37.9296 33.9018 38.7172C34.5741 39.5049 35.7576 39.5984 36.5453 38.9261C41.0709 35.0632 45.4195 29.7426 47.5389 22.9877Z" fill="#A50C0C"/>
</svg>
