<svg width="20" height="22" viewBox="0 0 20 22" fill="none" xmlns="http://www.w3.org/2000/svg">
<path fill-rule="evenodd" clip-rule="evenodd" d="M6.94635 20.1314L6.89154 20.0786L6.8906 20.0777C6.81297 20.0022 6.73411 19.9253 6.65418 19.8469C5.28265 18.5028 3.57247 16.7229 2.35023 14.6267C1.12339 12.5226 0.35406 10.0399 0.963002 7.3258C3.09158 -2.11531 16.9199 -2.10425 19.0375 7.33583C19.6642 10.129 18.8313 12.674 17.5406 14.8147C16.2547 16.9475 14.475 18.7454 13.0995 20.0782C12.0958 21.0554 11.1262 21.7322 10.0299 21.7448C8.92857 21.7575 7.95486 21.0978 6.95064 20.1355L6.94635 20.1314Z" fill="#0C6AA5"/>
<path fill-rule="evenodd" clip-rule="evenodd" d="M6.75 8.5C6.75 6.70507 8.20507 5.25 10 5.25C11.7949 5.25 13.25 6.70507 13.25 8.5C13.25 10.2949 11.7949 11.75 10 11.75C8.20507 11.75 6.75 10.2949 6.75 8.5Z" fill="white"/>
</svg>
