<svg width="178" height="30" viewBox="0 0 178 30" fill="none" xmlns="http://www.w3.org/2000/svg">
<path d="M1.1875 24C0.666667 24 0.375 23.7656 0.3125 23.2969C0.3125 23.0677 0.421875 22.8125 0.640625 22.5312L8.51562 12.4844L1.09375 3.07812C0.875 2.80729 0.765625 2.55208 0.765625 2.3125C0.765625 1.83333 1.05208 1.59375 1.625 1.59375H4.98438C6.02604 1.59375 6.9375 2.08854 7.71875 3.07812L12 8.51562L16.2812 3.07812C17.0521 2.09896 17.9635 1.60417 19.0156 1.59375H22.375C22.9479 1.59375 23.2344 1.83333 23.2344 2.3125C23.2344 2.54167 23.125 2.79688 22.9062 3.07812L15.4844 12.4844L23.3594 22.5312C23.5781 22.8021 23.6875 23.0208 23.6875 23.1875C23.6875 23.3542 23.6667 23.474 23.625 23.5469C23.5104 23.849 23.2396 24 22.8125 24H19.4844C18.4427 24 17.5365 23.5104 16.7656 22.5312L12 16.4531L7.23438 22.5312C6.46354 23.5104 5.55729 24 4.51562 24H1.1875ZM26.9219 22.0625C25.2969 20.5625 24.4844 18.3542 24.4844 15.4375C24.4844 12.5104 25.2969 10.3021 26.9219 8.8125C28.5469 7.3125 30.8802 6.5625 33.9219 6.5625C36.974 6.5625 39.3125 7.3125 40.9375 8.8125C42.5625 10.3021 43.375 12.5104 43.375 15.4375C43.375 18.3542 42.5625 20.5625 40.9375 22.0625C39.3125 23.5625 36.974 24.3125 33.9219 24.3125C30.8802 24.3125 28.5469 23.5625 26.9219 22.0625ZM30.875 11.375C30.2292 12.2188 29.9062 13.5677 29.9062 15.4219C29.9062 17.276 30.2292 18.6302 30.875 19.4844C31.5208 20.3385 32.5365 20.7656 33.9219 20.7656C35.3177 20.7656 36.3385 20.3385 36.9844 19.4844C37.6406 18.6302 37.9688 17.276 37.9688 15.4219C37.9688 13.5677 37.6406 12.2188 36.9844 11.375C36.3385 10.5312 35.3177 10.1094 33.9219 10.1094C32.5365 10.1094 31.5208 10.5312 30.875 11.375ZM45.2969 7.84375C45.2969 7.5625 45.3854 7.33333 45.5625 7.15625C45.75 6.96875 45.9844 6.875 46.2656 6.875H49.75C50.0312 6.875 50.2604 6.96875 50.4375 7.15625C50.625 7.33333 50.7188 7.5625 50.7188 7.84375V12.4531C50.7188 13.2344 50.9167 13.8073 51.3125 14.1719C51.7188 14.5365 52.2448 14.7188 52.8906 14.7188H56.8594V7.84375C56.8594 7.5625 56.9479 7.33333 57.125 7.15625C57.3125 6.96875 57.5417 6.875 57.8125 6.875H61.2969C61.5781 6.875 61.8073 6.96875 61.9844 7.15625C62.1719 7.33333 62.2656 7.5625 62.2656 7.84375V23.0469C62.2656 23.3177 62.1719 23.5469 61.9844 23.7344C61.8073 23.9115 61.5781 24 61.2969 24H57.8125C57.5417 24 57.3125 23.9115 57.125 23.7344C56.9479 23.5469 56.8594 23.3177 56.8594 23.0469V18.5H52.8906C50.2865 18.5 48.3698 18.0469 47.1406 17.1406C45.9115 16.2344 45.2969 14.6719 45.2969 12.4531V7.84375ZM69.4375 25.625L71.4844 25.8906C72.9531 25.8906 73.9792 24.8125 74.5625 22.6562C72.7917 22.6562 71.3125 22.125 70.125 21.0625C68.9375 19.9896 67.9167 18.0885 67.0625 15.3594L64.7344 7.8125C64.7031 7.72917 64.6875 7.63542 64.6875 7.53125C64.6875 7.41667 64.75 7.28125 64.875 7.125C65.0104 6.96875 65.2083 6.88542 65.4688 6.875H68.7344C69.0365 6.875 69.3229 6.97917 69.5938 7.1875C69.875 7.38542 70.0573 7.63542 70.1406 7.9375L72.1875 14.5625C72.6979 16.1875 73.2135 17.3125 73.7344 17.9375C74.2656 18.5625 74.8906 18.875 75.6094 18.875L78.7188 7.9375C78.8021 7.63542 78.9635 7.38542 79.2031 7.1875C79.4531 6.97917 79.7292 6.875 80.0312 6.875H83.3281C83.5885 6.875 83.7812 6.95833 83.9062 7.125C84.0312 7.29167 84.0938 7.43229 84.0938 7.54688C84.0938 7.65104 84.0833 7.73958 84.0625 7.8125L79.9688 22.4062C79.2396 24.9896 78.3333 26.8333 77.25 27.9375C76.1771 29.0417 74.7917 29.5938 73.0938 29.5938C71.3958 29.5938 70.1927 29.5312 69.4844 29.4062C68.7865 29.2812 68.349 29.125 68.1719 28.9375C67.9948 28.7604 67.9062 28.5521 67.9062 28.3125V26.5938C67.9062 26.3125 67.9948 26.0781 68.1719 25.8906C68.349 25.7135 68.5781 25.625 68.8594 25.625H69.4375ZM97.5469 23.0469V7.84375C97.5469 7.5625 97.6354 7.33333 97.8125 7.15625C98 6.96875 98.2292 6.875 98.5 6.875H107.844C109.833 6.875 111.443 7.26042 112.672 8.03125C113.911 8.80208 114.531 9.96354 114.531 11.5156C114.531 13.0573 113.891 14.224 112.609 15.0156C114.432 15.9323 115.344 17.2917 115.344 19.0938C115.344 20.8958 114.755 22.1667 113.578 22.9062C112.401 23.6354 110.714 24 108.516 24H98.5C98.2292 24 98 23.9115 97.8125 23.7344C97.6354 23.5469 97.5469 23.3177 97.5469 23.0469ZM102.953 20.5156H108.141C108.714 20.5156 109.151 20.3542 109.453 20.0312C109.766 19.7083 109.922 19.2812 109.922 18.75C109.922 18.2188 109.766 17.7917 109.453 17.4688C109.151 17.1458 108.714 16.9844 108.141 16.9844H102.953V20.5156ZM102.953 13.5625H107.531C108 13.5625 108.38 13.4167 108.672 13.125C108.974 12.8229 109.125 12.4375 109.125 11.9688C109.125 11.5 108.974 11.1198 108.672 10.8281C108.38 10.526 108 10.375 107.531 10.375H102.953V13.5625Z" fill="black"/>
<path d="M128.879 21.728C128.879 20.512 129.444 19.04 130.575 17.312C131.727 15.5627 133.135 13.8667 134.799 12.224C136.484 10.56 138.202 8.992 139.951 7.52C141.7 6.048 143.247 4.864 144.591 3.968C145.956 3.072 146.831 2.624 147.215 2.624C147.834 2.624 148.452 2.90133 149.071 3.456C149.69 3.98933 149.999 4.512 149.999 5.024C149.999 5.536 148.751 7.456 146.255 10.784C143.78 14.0907 141.06 17.344 138.095 20.544C135.13 23.7227 133.114 25.312 132.047 25.312C131.322 25.312 130.607 24.9173 129.903 24.128C129.22 23.36 128.879 22.56 128.879 21.728ZM177.407 3.712C177.407 4.352 175.209 5.42933 170.815 6.944C166.42 8.45867 163.679 9.23733 162.591 9.28C163.231 9.36533 163.551 9.632 163.551 10.08C163.551 10.3573 163.252 10.848 162.655 11.552C162.079 12.2347 160.692 13.9093 158.495 16.576C158.388 16.7467 157.289 18.1867 155.199 20.896C153.108 23.584 151.988 25.0027 151.839 25.152C151.263 25.728 150.847 26.016 150.591 26.016C150.313 26.016 150.047 25.92 149.791 25.728C149.535 25.5573 149.407 25.312 149.407 24.992C149.407 24.224 149.919 23.0827 150.943 21.568C151.967 20.032 152.991 18.688 154.015 17.536L155.583 15.84C157.161 14.048 159.007 12.096 161.119 9.984C161.417 9.70667 161.62 9.536 161.727 9.472C159.06 10.0907 157.087 10.4 155.807 10.4C154.527 10.4 153.364 10.0053 152.319 9.216C151.295 8.40533 150.783 7.53067 150.783 6.592C150.783 5.632 151.657 4.53333 153.407 3.296C155.177 2.03733 156.34 1.408 156.895 1.408C157.449 1.408 157.727 1.6 157.727 1.984C157.727 2.176 157.492 2.47467 157.023 2.88C156.575 3.264 156.255 3.49867 156.063 3.584C155.892 3.648 155.807 3.73333 155.807 3.84C155.807 3.94667 155.881 4 156.031 4C156.18 4 157.289 3.70133 159.359 3.104C161.449 2.48533 163.839 1.87733 166.527 1.28C169.215 0.661332 171.369 0.351999 172.991 0.351999C173.716 0.351999 174.633 0.682666 175.743 1.344C176.852 2.00533 177.407 2.79467 177.407 3.712Z" fill="#0C6AA5"/>
</svg>
