<svg width="405" height="75" viewBox="0 0 405 75" fill="none" xmlns="http://www.w3.org/2000/svg">
<g filter="url(#filter0_d_305_739)">
<path d="M6.67188 54C5.5 54 4.84375 53.4727 4.70312 52.418C4.70312 51.9023 4.94922 51.3281 5.44141 50.6953L23.1602 28.0898L6.46094 6.92578C5.96875 6.31641 5.72266 5.74219 5.72266 5.20312C5.72266 4.125 6.36719 3.58594 7.65625 3.58594H15.2148C17.5586 3.58594 19.6094 4.69922 21.3672 6.92578L31 19.1602L40.6328 6.92578C42.3672 4.72266 44.418 3.60938 46.7852 3.58594H54.3438C55.6328 3.58594 56.2773 4.125 56.2773 5.20312C56.2773 5.71875 56.0312 6.29297 55.5391 6.92578L38.8398 28.0898L56.5586 50.6953C57.0508 51.3047 57.2969 51.7969 57.2969 52.1719C57.2969 52.5469 57.25 52.8164 57.1562 52.9805C56.8984 53.6602 56.2891 54 55.3281 54H47.8398C45.4961 54 43.457 52.8984 41.7227 50.6953L31 37.0195L20.2773 50.6953C18.543 52.8984 16.5039 54 14.1602 54H6.67188ZM64.5742 49.6406C60.918 46.2656 59.0898 41.2969 59.0898 34.7344C59.0898 28.1484 60.918 23.1797 64.5742 19.8281C68.2305 16.4531 73.4805 14.7656 80.3242 14.7656C87.1914 14.7656 92.4531 16.4531 96.1094 19.8281C99.7656 23.1797 101.594 28.1484 101.594 34.7344C101.594 41.2969 99.7656 46.2656 96.1094 49.6406C92.4531 53.0156 87.1914 54.7031 80.3242 54.7031C73.4805 54.7031 68.2305 53.0156 64.5742 49.6406ZM73.4688 25.5938C72.0156 27.4922 71.2891 30.5273 71.2891 34.6992C71.2891 38.8711 72.0156 41.918 73.4688 43.8398C74.9219 45.7617 77.207 46.7227 80.3242 46.7227C83.4648 46.7227 85.7617 45.7617 87.2148 43.8398C88.6914 41.918 89.4297 38.8711 89.4297 34.6992C89.4297 30.5273 88.6914 27.4922 87.2148 25.5938C85.7617 23.6953 83.4648 22.7461 80.3242 22.7461C77.207 22.7461 74.9219 23.6953 73.4688 25.5938ZM105.918 17.6484C105.918 17.0156 106.117 16.5 106.516 16.1016C106.938 15.6797 107.465 15.4688 108.098 15.4688H115.938C116.57 15.4688 117.086 15.6797 117.484 16.1016C117.906 16.5 118.117 17.0156 118.117 17.6484V28.0195C118.117 29.7773 118.562 31.0664 119.453 31.8867C120.367 32.707 121.551 33.1172 123.004 33.1172H131.934V17.6484C131.934 17.0156 132.133 16.5 132.531 16.1016C132.953 15.6797 133.469 15.4688 134.078 15.4688H141.918C142.551 15.4688 143.066 15.6797 143.465 16.1016C143.887 16.5 144.098 17.0156 144.098 17.6484V51.8555C144.098 52.4648 143.887 52.9805 143.465 53.4023C143.066 53.8008 142.551 54 141.918 54H134.078C133.469 54 132.953 53.8008 132.531 53.4023C132.133 52.9805 131.934 52.4648 131.934 51.8555V41.625H123.004C117.145 41.625 112.832 40.6055 110.066 38.5664C107.301 36.5273 105.918 33.0117 105.918 28.0195V17.6484ZM160.234 57.6562L164.84 58.2539C168.145 58.2539 170.453 55.8281 171.766 50.9766C167.781 50.9766 164.453 49.7812 161.781 47.3906C159.109 44.9766 156.812 40.6992 154.891 34.5586L149.652 17.5781C149.582 17.3906 149.547 17.1797 149.547 16.9453C149.547 16.6875 149.688 16.3828 149.969 16.0312C150.273 15.6797 150.719 15.4922 151.305 15.4688H158.652C159.332 15.4688 159.977 15.7031 160.586 16.1719C161.219 16.6172 161.629 17.1797 161.816 17.8594L166.422 32.7656C167.57 36.4219 168.73 38.9531 169.902 40.3594C171.098 41.7656 172.504 42.4688 174.121 42.4688L181.117 17.8594C181.305 17.1797 181.668 16.6172 182.207 16.1719C182.77 15.7031 183.391 15.4688 184.07 15.4688H191.488C192.074 15.4688 192.508 15.6562 192.789 16.0312C193.07 16.4063 193.211 16.7227 193.211 16.9805C193.211 17.2148 193.188 17.4141 193.141 17.5781L183.93 50.4141C182.289 56.2266 180.25 60.375 177.812 62.8594C175.398 65.3438 172.281 66.5859 168.461 66.5859C164.641 66.5859 161.934 66.4453 160.34 66.1641C158.77 65.8828 157.785 65.5312 157.387 65.1094C156.988 64.7109 156.789 64.2422 156.789 63.7031V59.8359C156.789 59.2031 156.988 58.6758 157.387 58.2539C157.785 57.8555 158.301 57.6562 158.934 57.6562H160.234ZM223.48 51.8555V17.6484C223.48 17.0156 223.68 16.5 224.078 16.1016C224.5 15.6797 225.016 15.4688 225.625 15.4688H246.648C251.125 15.4688 254.746 16.3359 257.512 18.0703C260.301 19.8047 261.695 22.418 261.695 25.9102C261.695 29.3789 260.254 32.0039 257.371 33.7852C261.473 35.8477 263.523 38.9062 263.523 42.9609C263.523 47.0156 262.199 49.875 259.551 51.5391C256.902 53.1797 253.105 54 248.16 54H225.625C225.016 54 224.5 53.8008 224.078 53.4023C223.68 52.9805 223.48 52.4648 223.48 51.8555ZM235.645 46.1602H247.316C248.605 46.1602 249.59 45.7969 250.27 45.0703C250.973 44.3438 251.324 43.3828 251.324 42.1875C251.324 40.9922 250.973 40.0312 250.27 39.3047C249.59 38.5781 248.605 38.2148 247.316 38.2148H235.645V46.1602ZM235.645 30.5156H245.945C247 30.5156 247.855 30.1875 248.512 29.5312C249.191 28.8516 249.531 27.9844 249.531 26.9297C249.531 25.875 249.191 25.0195 248.512 24.3633C247.855 23.6836 247 23.3438 245.945 23.3438H235.645V30.5156ZM291.458 48.888C291.458 46.152 292.73 42.84 295.274 38.952C297.866 35.016 301.034 31.2 304.778 27.504C308.57 23.76 312.434 20.232 316.37 16.92C320.306 13.608 323.786 10.944 326.81 8.928C329.882 6.912 331.85 5.904 332.714 5.904C334.106 5.904 335.498 6.528 336.89 7.776C338.282 8.976 338.978 10.152 338.978 11.304C338.978 12.456 336.17 16.776 330.554 24.264C324.986 31.704 318.866 39.024 312.194 46.224C305.522 53.376 300.986 56.952 298.586 56.952C296.954 56.952 295.346 56.064 293.762 54.288C292.226 52.56 291.458 50.76 291.458 48.888ZM400.645 8.352C400.645 9.792 395.701 12.216 385.813 15.624C375.925 19.032 369.757 20.784 367.309 20.88C368.749 21.072 369.469 21.672 369.469 22.68C369.469 23.304 368.797 24.408 367.453 25.992C366.157 27.528 363.037 31.296 358.093 37.296C357.853 37.68 355.381 40.92 350.677 47.016C345.973 53.064 343.453 56.256 343.117 56.592C341.821 57.888 340.885 58.536 340.309 58.536C339.685 58.536 339.085 58.32 338.509 57.888C337.933 57.504 337.645 56.952 337.645 56.232C337.645 54.504 338.797 51.936 341.101 48.528C343.405 45.072 345.709 42.048 348.013 39.456L351.541 35.64C355.093 31.608 359.245 27.216 363.997 22.464C364.669 21.84 365.125 21.456 365.365 21.312C359.365 22.704 354.925 23.4 352.045 23.4C349.165 23.4 346.549 22.512 344.197 20.736C341.893 18.912 340.741 16.944 340.741 14.832C340.741 12.672 342.709 10.2 346.645 7.416C350.629 4.584 353.245 3.168 354.493 3.168C355.741 3.168 356.365 3.6 356.365 4.464C356.365 4.896 355.837 5.568 354.781 6.48C353.773 7.344 353.053 7.872 352.621 8.064C352.237 8.208 352.045 8.4 352.045 8.64C352.045 8.88 352.213 9 352.549 9C352.885 9 355.381 8.328 360.037 6.984C364.741 5.592 370.117 4.224 376.165 2.88C382.213 1.488 387.061 0.791998 390.709 0.791998C392.341 0.791998 394.405 1.536 396.901 3.024C399.397 4.512 400.645 6.288 400.645 8.352Z" fill="white"/>
</g>
<defs>
<filter id="filter0_d_305_739" x="0.703125" y="0.791992" width="403.942" height="73.7939" filterUnits="userSpaceOnUse" color-interpolation-filters="sRGB">
<feFlood flood-opacity="0" result="BackgroundImageFix"/>
<feColorMatrix in="SourceAlpha" type="matrix" values="0 0 0 0 0 0 0 0 0 0 0 0 0 0 0 0 0 0 127 0" result="hardAlpha"/>
<feOffset dy="4"/>
<feGaussianBlur stdDeviation="2"/>
<feComposite in2="hardAlpha" operator="out"/>
<feColorMatrix type="matrix" values="0 0 0 0 0 0 0 0 0 0 0 0 0 0 0 0 0 0 0.25 0"/>
<feBlend mode="normal" in2="BackgroundImageFix" result="effect1_dropShadow_305_739"/>
<feBlend mode="normal" in="SourceGraphic" in2="effect1_dropShadow_305_739" result="shape"/>
</filter>
</defs>
</svg>
