<svg width="40" height="40" viewBox="0 0 40 40" fill="none" xmlns="http://www.w3.org/2000/svg">
<path d="M24.7882 32.4055C24.7882 32.9111 24.6589 33.4118 24.4077 33.8789C24.1564 34.3461 23.7882 34.7705 23.324 35.128C22.8597 35.4855 22.3086 35.7692 21.7021 35.9626C21.0955 36.1561 20.4454 36.2557 19.7889 36.2557C19.1324 36.2557 18.4823 36.1561 17.8758 35.9626C17.2692 35.7692 16.7181 35.4855 16.2539 35.128C15.7897 34.7705 15.4214 34.3461 15.1702 33.8789C14.919 33.4118 14.7896 32.9111 14.7896 32.4055" stroke="black" stroke-width="1.5" stroke-linecap="round"/>
<path d="M32.6912 21.9828L33.1323 22.934C34.8148 26.5622 32.6236 30.803 28.691 31.5299L28.424 31.5792C22.7156 32.6344 16.8621 32.6344 11.1537 31.5792C7.18888 30.8464 5.0913 26.4599 7.0099 22.9136L7.38725 22.2162C8.41754 20.3118 8.95707 18.1807 8.95707 16.0156L8.95707 13.8134C8.95707 10.1071 11.0548 6.72007 14.373 5.06883C17.7968 3.36503 21.8088 3.30707 25.2804 4.91125L25.6214 5.06883C29.1772 6.71196 31.4539 10.2719 31.4539 14.1891L31.4539 16.3735C31.4539 18.3109 31.8761 20.2251 32.6912 21.9828Z" stroke="black" stroke-width="1.5"/>
</svg>
