<svg width="30" height="30" viewBox="0 0 30 30" fill="none" xmlns="http://www.w3.org/2000/svg">
<path fill-rule="evenodd" clip-rule="evenodd" d="M26.9263 8.43106C27.1001 7.89437 26.9263 7.5 26.0992 7.5H23.3642C22.6688 7.5 22.3482 7.84067 22.1743 8.21634C22.1743 8.21634 20.7835 11.356 18.8132 13.3953C18.1757 13.9857 17.8859 14.1735 17.5382 14.1735C17.3644 14.1735 17.1127 13.9857 17.1127 13.449V8.43106C17.1127 7.78703 16.9109 7.5 16.3313 7.5H12.0335C11.5989 7.5 11.3375 7.79891 11.3375 8.0822C11.3375 8.69273 12.3226 8.83352 12.4242 10.5509V14.2809C12.4242 15.0987 12.2647 15.2469 11.917 15.2469C10.9898 15.2469 8.73445 12.0933 7.3968 8.48471C7.13466 7.78332 6.87173 7.5 6.17274 7.5H3.43773C2.65629 7.5 2.5 7.84067 2.5 8.21634C2.5 8.88722 3.42723 12.2147 6.81733 16.6155C9.07738 19.6209 12.2616 21.25 15.1592 21.25C16.8977 21.25 17.1128 20.8882 17.1128 20.2649V17.9934C17.1128 17.2697 17.2775 17.1253 17.828 17.1253C18.2336 17.1253 18.9291 17.3131 20.5517 18.7622C22.4061 20.4796 22.7119 21.25 23.7549 21.25H26.49C27.2714 21.25 27.6621 20.8882 27.4367 20.1741C27.1901 19.4624 26.3047 18.4298 25.1298 17.2058C24.4924 16.5081 23.5362 15.7568 23.2464 15.381C22.8408 14.8981 22.9567 14.6834 23.2464 14.2541C23.2464 14.2541 26.5786 9.90691 26.9263 8.43106Z" fill="white"/>
</svg>
