<svg width="22" height="22" viewBox="0 0 22 22" fill="none" xmlns="http://www.w3.org/2000/svg">
<path d="M7 11L6.25 11L7 11ZM15 11L15.75 11L15 11ZM11 15L11 15.75L11 15ZM11 9L11 9.75L11 9ZM13.0694 20.7856L13.2238 21.5195L13.0694 20.7856ZM8.93059 20.7856L8.77616 21.5195L8.93059 20.7856ZM1.73861 7.22119L1.04429 6.93761L1.04429 6.93761L1.73861 7.22119ZM1.21438 13.0694L0.480454 13.2238L1.21438 13.0694ZM8.93059 1.21438L8.77616 0.480454L8.77616 0.480454L8.93059 1.21438ZM13.0694 1.21438L13.2238 0.480455L13.0694 1.21438ZM20.1808 7.25727L19.9631 6.53956L20.1808 7.25727ZM1.73861 7.22119L1.04429 6.93761L0.803072 7.52819L1.34731 7.86103L1.73861 7.22119ZM1.81797 7.25691L2.03567 6.5392L1.81797 7.25691ZM19.5681 7.5073C20.0075 8.58399 20.25 9.76274 20.25 11H21.75C21.75 9.56508 21.4684 8.19407 20.9569 6.94055L19.5681 7.5073ZM20.25 11C20.25 11.6573 20.1816 12.2977 20.0517 12.915L21.5195 13.2238C21.6707 12.5057 21.75 11.7617 21.75 11H20.25ZM20.0517 12.915C19.3002 16.4862 16.4862 19.3002 12.915 20.0517L13.2238 21.5195C17.3769 20.6456 20.6456 17.3769 21.5195 13.2238L20.0517 12.915ZM12.915 20.0517C12.2978 20.1816 11.6573 20.25 11 20.25V21.75C11.7617 21.75 12.5057 21.6707 13.2238 21.5195L12.915 20.0517ZM11 20.25C10.3427 20.25 9.70224 20.1816 9.08503 20.0517L8.77616 21.5195C9.49433 21.6707 10.2383 21.75 11 21.75V20.25ZM1.75 11C1.75 9.76177 1.99289 8.58214 2.43293 7.50478L1.04429 6.93761C0.53198 8.19192 0.25 9.56396 0.25 11H1.75ZM9.08503 20.0517C5.51382 19.3002 2.69976 16.4862 1.94831 12.915L0.480454 13.2238C1.35435 17.3769 4.62304 20.6456 8.77616 21.5195L9.08503 20.0517ZM1.94831 12.915C1.81844 12.2977 1.75 11.6573 1.75 11H0.25C0.25 11.7617 0.329336 12.5057 0.480454 13.2238L1.94831 12.915ZM2.43293 7.50478C3.57824 4.70064 6.06086 2.58466 9.08502 1.94831L8.77616 0.480454C5.25736 1.22088 2.37486 3.67989 1.04429 6.93761L2.43293 7.50478ZM9.08502 1.94831C9.70224 1.81844 10.3427 1.75 11 1.75V0.25C10.2383 0.25 9.49433 0.329336 8.77616 0.480454L9.08502 1.94831ZM11 1.75C11.6573 1.75 12.2978 1.81844 12.915 1.94831L13.2238 0.480455C12.5057 0.329336 11.7617 0.25 11 0.25V1.75ZM12.915 1.94831C15.94 2.58485 18.4232 4.70192 19.5681 7.5073L20.9569 6.94055C19.6269 3.68137 16.7437 1.22111 13.2238 0.480455L12.915 1.94831ZM12.3549 1.44237C12.6308 2.30712 13.6522 5.63305 14.0708 8.68885L15.5569 8.48526C15.1197 5.29347 14.064 1.86407 13.7839 0.986399L12.3549 1.44237ZM14.0708 8.68885C14.183 9.50779 14.25 10.2943 14.25 11L15.75 11C15.75 10.2056 15.6751 9.34757 15.5569 8.48526L14.0708 8.68885ZM19.9631 6.53956C18.8657 6.87243 16.8043 7.45704 14.6778 7.84951L14.95 9.3246C17.1556 8.91754 19.2773 8.31504 20.3985 7.97499L19.9631 6.53956ZM14.6778 7.84951C13.3878 8.08759 12.0996 8.25 11 8.25L11 9.75C12.2292 9.75 13.6179 9.57045 14.95 9.3246L14.6778 7.84951ZM14.25 11C14.25 12.0455 14.1032 13.2621 13.8836 14.4899L15.3602 14.7539C15.5874 13.4833 15.75 12.1698 15.75 11L14.25 11ZM13.8836 14.4899C13.4025 17.1811 12.5941 19.808 12.3549 20.5576L13.7839 21.0136C14.0294 20.2443 14.8615 17.5431 15.3602 14.7539L13.8836 14.4899ZM20.5576 12.3549C19.808 12.5941 17.1811 13.4025 14.4899 13.8836L14.7539 15.3602C17.5432 14.8615 20.2443 14.0294 21.0136 13.7839L20.5576 12.3549ZM14.4899 13.8836C13.2621 14.1032 12.0455 14.25 11 14.25L11 15.75C12.1698 15.75 13.4833 15.5874 14.7539 15.3602L14.4899 13.8836ZM11 14.25C9.95451 14.25 8.73786 14.1032 7.51007 13.8836L7.24606 15.3602C8.5167 15.5874 9.83017 15.75 11 15.75L11 14.25ZM7.51007 13.8836C4.81886 13.4025 2.19197 12.5941 1.44237 12.3549L0.986398 13.7839C1.75568 14.0294 4.45684 14.8615 7.24606 15.3602L7.51007 13.8836ZM6.25 11C6.25 12.1698 6.41258 13.4833 6.63977 14.7539L8.11635 14.4899C7.89683 13.2621 7.75 12.0455 7.75 11L6.25 11ZM6.63977 14.7539C7.13848 17.5432 7.97062 20.2443 8.21608 21.0136L9.6451 20.5576C9.40592 19.808 8.59753 17.1811 8.11635 14.4899L6.63977 14.7539ZM8.21608 0.986398C7.93604 1.86407 6.8803 5.29347 6.44304 8.48526L7.92916 8.68885C8.34779 5.63305 9.36918 2.30712 9.6451 1.44237L8.21608 0.986398ZM6.44304 8.48526C6.32491 9.34757 6.25 10.2056 6.25 11L7.75 11C7.75 10.2943 7.81697 9.50779 7.92916 8.68885L6.44304 8.48526ZM11 8.25C9.90034 8.25 8.61224 8.08759 7.32222 7.84951L7.04998 9.3246C8.38211 9.57045 9.77078 9.75 11 9.75L11 8.25ZM7.32222 7.84951C5.19489 7.4569 3.13286 6.87201 2.03567 6.5392L1.60027 7.97462C2.72114 8.31462 4.8436 8.91739 7.04998 9.3246L7.32222 7.84951ZM19.9169 6.55831C19.9301 6.55142 19.946 6.54475 19.9631 6.53956L20.3985 7.97499C20.4725 7.95255 20.5421 7.92381 20.6081 7.88954L19.9169 6.55831ZM1.34731 7.86103C1.42503 7.90856 1.50939 7.94706 1.60027 7.97462L2.03567 6.5392C2.07033 6.54972 2.10229 6.56447 2.1299 6.58136L1.34731 7.86103Z" fill="#0C6AA5"/>
</svg>
