<svg width="30" height="30" viewBox="0 0 30 30" fill="none" xmlns="http://www.w3.org/2000/svg">
<path fill-rule="evenodd" clip-rule="evenodd" d="M24.7401 6.76841C25.8151 7.05724 26.6656 7.9077 26.9544 8.98279C27.484 10.9404 27.5 15.0001 27.5 15.0001C27.5 15.0001 27.5 19.0759 26.9705 21.0174C26.6816 22.0925 25.8312 22.943 24.7561 23.2318C22.8145 23.7614 15 23.7614 15 23.7614C15 23.7614 7.18549 23.7614 5.2439 23.2318C4.16881 22.943 3.31836 22.0925 3.02953 21.0174C2.5 19.0598 2.5 15.0001 2.5 15.0001C2.5 15.0001 2.5 10.9404 3.01348 8.99884C3.30231 7.92374 4.15276 7.0733 5.22786 6.78447C7.16945 6.25493 14.984 6.23889 14.984 6.23889C14.984 6.23889 22.7985 6.23889 24.7401 6.76841ZM18.9795 15.0001L12.4968 18.7549V11.2453L18.9795 15.0001Z" fill="white"/>
</svg>
